<svg width="375" height="600" viewBox="0 0 375 600" fill="none" xmlns="http://www.w3.org/2000/svg">
<g clip-path="url(#clip0_1956_5517)">
<rect width="375" height="600" fill="black"/>
<g opacity="0.4" filter="url(#filter0_f_1956_5517)">
<ellipse cx="177.701" cy="32.1922" rx="177.701" ry="32.1922" transform="matrix(1 0.000786365 -0.00104309 0.999999 15.2734 267.887)" fill="#D9ADD0"/>
</g>
<g filter="url(#filter1_f_1956_5517)">
<ellipse cx="117.824" cy="18.6715" rx="117.824" ry="18.6715" transform="matrix(1 0.000786365 -0.00104309 0.999999 69.3828 283.012)" fill="#D9ADD0"/>
</g>
<g filter="url(#filter2_f_1956_5517)">
<ellipse cx="40.8485" cy="6.5931" rx="40.8485" ry="6.5931" transform="matrix(0.93958 -0.34233 0.342089 0.939668 153.242 298.973)" fill="white"/>
</g>
<circle cx="191.041" cy="735.103" r="433.951" transform="rotate(-180 191.041 735.103)" fill="url(#paint0_radial_1956_5517)"/>
<path d="M-246.903 -135.209C-246.903 104.366 -52.6161 298.581 187.049 298.581C426.713 298.581 621 104.366 621 -135.21C621 -374.785 426.713 -569 187.049 -569C-52.6162 -569 -246.903 -374.785 -246.903 -135.209Z" fill="url(#paint1_radial_1956_5517)"/>
<rect x="-532" y="-312" width="1440" height="1159" fill="#D9D9D9"/>
<g clip-path="url(#clip1_1956_5517)">
<g filter="url(#filter3_f_1956_5517)">
<rect x="-128" y="496" width="632" height="408" fill="url(#paint2_radial_1956_5517)"/>
</g>
</g>
</g>
<defs>
<filter id="filter0_f_1956_5517" x="-50.3776" y="202.408" width="486.638" height="195.622" filterUnits="userSpaceOnUse" color-interpolation-filters="sRGB">
<feFlood flood-opacity="0" result="BackgroundImageFix"/>
<feBlend mode="normal" in="SourceGraphic" in2="BackgroundImageFix" result="shape"/>
<feGaussianBlur stdDeviation="32.8099" result="effect1_foregroundBlur_1956_5517"/>
</filter>
<filter id="filter1_f_1956_5517" x="3.74741" y="217.486" width="366.88" height="168.583" filterUnits="userSpaceOnUse" color-interpolation-filters="sRGB">
<feFlood flood-opacity="0" result="BackgroundImageFix"/>
<feBlend mode="normal" in="SourceGraphic" in2="BackgroundImageFix" result="shape"/>
<feGaussianBlur stdDeviation="32.8099" result="effect1_foregroundBlur_1956_5517"/>
</filter>
<filter id="filter2_f_1956_5517" x="122.62" y="243.077" width="142.518" height="96.2174" filterUnits="userSpaceOnUse" color-interpolation-filters="sRGB">
<feFlood flood-opacity="0" result="BackgroundImageFix"/>
<feBlend mode="normal" in="SourceGraphic" in2="BackgroundImageFix" result="shape"/>
<feGaussianBlur stdDeviation="16.4049" result="effect1_foregroundBlur_1956_5517"/>
</filter>
<filter id="filter3_f_1956_5517" x="-178" y="446" width="732" height="508" filterUnits="userSpaceOnUse" color-interpolation-filters="sRGB">
<feFlood flood-opacity="0" result="BackgroundImageFix"/>
<feBlend mode="normal" in="SourceGraphic" in2="BackgroundImageFix" result="shape"/>
<feGaussianBlur stdDeviation="25" result="effect1_foregroundBlur_1956_5517"/>
</filter>
<radialGradient id="paint0_radial_1956_5517" cx="0" cy="0" r="1" gradientUnits="userSpaceOnUse" gradientTransform="translate(191.065 1167.88) rotate(-90) scale(296.489 337.175)">
<stop offset="0.110577" stop-color="#E3D0D5"/>
<stop offset="0.538462" stop-color="#C24E88"/>
<stop offset="1" stop-color="#8E4ABD" stop-opacity="0.15"/>
</radialGradient>
<radialGradient id="paint1_radial_1956_5517" cx="0" cy="0" r="1" gradientUnits="userSpaceOnUse" gradientTransform="translate(187.024 297.406) rotate(-90) scale(296.379 345.464)">
<stop offset="0.110577" stop-color="#E3D0D5"/>
<stop offset="0.538462" stop-color="#C24E88"/>
<stop offset="1" stop-color="#8E4ABD" stop-opacity="0.15"/>
</radialGradient>
<radialGradient id="paint2_radial_1956_5517" cx="0" cy="0" r="1" gradientUnits="userSpaceOnUse" gradientTransform="translate(182.514 488.279) scale(342.553 92.1981)">
<stop offset="0.654878" stop-opacity="0"/>
<stop offset="1"/>
</radialGradient>
<clipPath id="clip0_1956_5517">
<rect width="375" height="600" fill="white"/>
</clipPath>
<clipPath id="clip1_1956_5517">
<rect width="375" height="104" fill="white" transform="matrix(1 0 0 -1 0 600)"/>
</clipPath>
</defs>
</svg>
