<svg width="40" height="40" viewBox="0 0 40 40" fill="none" xmlns="http://www.w3.org/2000/svg">
<path fill-rule="evenodd" clip-rule="evenodd" d="M7.76562 17.8404C7.76562 17.15 8.32527 16.5904 9.01563 16.5904H13.4655C14.514 16.5904 15.375 17.139 15.9361 17.7805C16.3257 18.2258 16.7914 18.6062 17.3156 18.9032C18.128 19.3635 19.0512 19.6068 19.9924 19.6068C20.9335 19.6068 21.8568 19.3635 22.6692 18.9032C23.1934 18.6062 23.6591 18.2258 24.0487 17.7805C24.6097 17.139 25.4708 16.5904 26.5193 16.5904H30.969C31.6594 16.5904 32.219 17.15 32.219 17.8404C32.219 18.5307 31.6594 19.0904 30.969 19.0904H26.5193C26.3765 19.0904 26.1536 19.1712 25.9303 19.4265C25.3553 20.0838 24.6699 20.643 23.9016 21.0783C22.7116 21.7526 21.3634 22.1068 19.9924 22.1068C18.6214 22.1068 17.2732 21.7526 16.0831 21.0783C15.3149 20.643 14.6295 20.0838 14.0545 19.4265C13.8312 19.1712 13.6082 19.0904 13.4655 19.0904H9.01563C8.32527 19.0904 7.76562 18.5307 7.76562 17.8404ZM9.01563 11.4219C8.32527 11.4219 7.76562 11.9815 7.76562 12.6719C7.76562 13.3622 8.32527 13.9219 9.01563 13.9219H30.969C31.6594 13.9219 32.219 13.3622 32.219 12.6719C32.219 11.9815 31.6594 11.4219 30.969 11.4219H9.01563Z" fill="url(#paint0_radial_1956_5174)"/>
<path fill-rule="evenodd" clip-rule="evenodd" d="M10.6973 6.25H29.2937C30.4741 6.24999 31.4357 6.24998 32.2163 6.31376C33.0232 6.37968 33.7462 6.51992 34.4197 6.86309C35.4782 7.40238 36.3387 8.26289 36.878 9.32131C37.2211 9.99482 37.3614 10.7179 37.4273 11.5247C37.4911 12.3054 37.4911 13.2669 37.491 14.4473V25.5456C37.4911 26.726 37.4911 27.6875 37.4273 28.4682C37.3614 29.275 37.2211 29.9981 36.878 30.6716C36.3387 31.73 35.4782 32.5905 34.4197 33.1298C33.7462 33.473 33.0232 33.6132 32.2163 33.6791C31.4357 33.7429 30.4741 33.7429 29.2938 33.7429H10.6973C9.51692 33.7429 8.55538 33.7429 7.77472 33.6791C6.96788 33.6132 6.24482 33.473 5.5713 33.1298C4.51289 32.5905 3.65238 31.73 3.11309 30.6716C2.76992 29.9981 2.62968 29.275 2.56376 28.4682C2.49998 27.6875 2.49999 26.726 2.5 25.5456V14.4473C2.49999 13.2669 2.49998 12.3054 2.56376 11.5247C2.62968 10.7179 2.76992 9.99482 3.11309 9.32131C3.65238 8.26289 4.51289 7.40238 5.5713 6.86309C6.24482 6.51992 6.96788 6.37968 7.77472 6.31376C8.55538 6.24998 9.51695 6.24999 10.6973 6.25ZM7.9783 8.80546C7.32606 8.85875 6.96863 8.95693 6.70628 9.09061C6.11827 9.39021 5.64021 9.86828 5.34061 10.4563C5.20693 10.7186 5.10875 11.0761 5.05546 11.7283C5.00097 12.3951 5 13.2543 5 14.5V25.4929C5 26.7386 5.00097 27.5978 5.05546 28.2646C5.10875 28.9168 5.20693 29.2743 5.34061 29.5366C5.64021 30.1246 6.11827 30.6027 6.70628 30.9023C6.96863 31.036 7.32606 31.1341 7.9783 31.1874C8.64513 31.2419 9.50426 31.2429 10.75 31.2429H29.241C30.4868 31.2429 31.3459 31.2419 32.0127 31.1874C32.665 31.1341 33.0224 31.036 33.2848 30.9023C33.8728 30.6027 34.3508 30.1246 34.6504 29.5366C34.7841 29.2743 34.8823 28.9168 34.9356 28.2646C34.9901 27.5978 34.991 26.7386 34.991 25.4929V14.5C34.991 13.2543 34.9901 12.3951 34.9356 11.7283C34.8823 11.0761 34.7841 10.7186 34.6504 10.4563C34.3508 9.86828 33.8728 9.39021 33.2848 9.09061C33.0224 8.95693 32.665 8.85875 32.0127 8.80546C31.3459 8.75097 30.4868 8.75 29.241 8.75H10.75C9.50426 8.75 8.64513 8.75097 7.9783 8.80546Z" fill="url(#paint1_radial_1956_5174)"/>
<defs>
<radialGradient id="paint0_radial_1956_5174" cx="0" cy="0" r="1" gradientTransform="matrix(6.60487e-08 9.89341 -22.642 -0.000379203 16.3696 15.1814)" gradientUnits="userSpaceOnUse">
<stop offset="0.396437" stop-color="white"/>
<stop offset="0.872276" stop-color="white" stop-opacity="0"/>
</radialGradient>
<radialGradient id="paint1_radial_1956_5174" cx="0" cy="0" r="1" gradientTransform="matrix(0.00557369 23.0843 -29.3801 0.00349436 19.9899 10.6586)" gradientUnits="userSpaceOnUse">
<stop offset="0.110577" stop-color="#E3D0D5"/>
<stop offset="0.538462" stop-color="#BE6FBD"/>
<stop offset="1" stop-color="#8E4ABD" stop-opacity="0.15"/>
</radialGradient>
</defs>
</svg>
