<svg width="40" height="40" viewBox="0 0 40 40" fill="none" xmlns="http://www.w3.org/2000/svg">
<path fill-rule="evenodd" clip-rule="evenodd" d="M25.3203 22.5192C24.6318 22.4675 24.0318 22.9836 23.9801 23.672C23.9284 24.3605 24.4446 24.9605 25.133 25.0122L29.4878 25.3393C30.1762 25.391 30.7762 24.8749 30.8279 24.1864C30.8796 23.498 30.3635 22.898 29.675 22.8463L25.3203 22.5192Z" fill="url(#paint0_radial_1956_5168)"/>
<path fill-rule="evenodd" clip-rule="evenodd" d="M26.1828 6.35519C26.7398 6.29388 27.0801 6.25747 27.3347 6.25098C27.5117 6.24646 27.5798 6.25985 27.5944 6.26356C27.6959 6.30607 27.7779 6.3796 27.8297 6.47026C27.8352 6.48566 27.8543 6.55029 27.8684 6.71395C27.8898 6.96353 27.8909 7.30088 27.8909 7.85662V12.0915L7.92792 10.5934C7.32393 10.5481 6.875 10.0534 6.875 9.47926C6.875 8.91973 7.30169 8.43333 7.88775 8.36882L26.1828 6.35519ZM7.61424 5.88383C5.77964 6.08575 4.375 7.62617 4.375 9.47926V26.8948C4.37499 27.9796 4.37498 28.8674 4.43281 29.5921C4.49279 30.3437 4.62052 31.0207 4.93147 31.6607C5.42121 32.6687 6.20504 33.5053 7.17907 34.063C7.7963 34.4165 8.46414 34.5929 9.21369 34.7085C9.93742 34.8202 10.8298 34.8872 11.9227 34.9692L26.8333 36.0881C28.0889 36.1824 29.1085 36.2589 29.937 36.2521C30.7907 36.2451 31.5606 36.1516 32.2846 35.8328C33.4178 35.3338 34.3541 34.4751 34.9444 33.389C35.3224 32.6936 35.4753 31.9355 35.5471 31.0902C35.6167 30.2708 35.6166 29.2567 35.6166 28.0105V20.1792C35.6166 19.0944 35.6167 18.2067 35.5588 17.482C35.4988 16.7304 35.3711 16.0534 35.0602 15.4134C34.5704 14.4054 33.7866 13.5688 32.8126 13.011C32.1953 12.6576 31.5275 12.4812 30.7779 12.3655C30.6539 12.3464 30.525 12.3286 30.3909 12.3118V7.80917C30.3909 7.31614 30.3909 6.8696 30.3592 6.49989C30.3252 6.10506 30.2476 5.67337 30.0158 5.25742C29.6868 4.66707 29.1668 4.20725 28.543 3.95053C28.1049 3.77021 27.6682 3.74166 27.271 3.75179C26.8981 3.76129 26.4515 3.81048 25.9559 3.86506L7.61424 5.88383ZM6.875 26.8441V13.0215L27.8318 14.5941C28.9867 14.6808 29.7812 14.7413 30.3968 14.8363C30.9976 14.929 31.3274 15.0415 31.5702 15.1805C32.1107 15.49 32.5426 15.9524 32.8115 16.5059C32.9313 16.7526 33.019 17.0829 33.0667 17.6808C33.1157 18.2944 33.1166 19.0821 33.1166 20.23V27.9552C33.1166 29.2699 33.1156 30.1776 33.0561 30.8786C32.9977 31.5658 32.8904 31.933 32.7479 32.1951C32.4235 32.7919 31.9069 33.2675 31.2771 33.5448C30.9978 33.6678 30.6153 33.7464 29.9165 33.7522C29.2045 33.758 28.289 33.6903 26.9662 33.5911L12.1599 32.4799C11.0049 32.3933 10.2105 32.3328 9.59487 32.2378C8.99407 32.1451 8.66422 32.0326 8.42143 31.8936C7.88095 31.5841 7.44903 31.1217 7.18013 30.5682C7.06028 30.3215 6.97261 29.9912 6.92489 29.3932C6.87593 28.7797 6.875 27.992 6.875 26.8441Z" fill="url(#paint1_radial_1956_5168)"/>
<defs>
<radialGradient id="paint0_radial_1956_5168" cx="0" cy="0" r="1" gradientTransform="matrix(1.85151e-08 2.61782 -6.34714 -0.000100338 26.3885 23.5104)" gradientUnits="userSpaceOnUse">
<stop offset="0.396437" stop-color="white"/>
<stop offset="0.872276" stop-color="white" stop-opacity="0"/>
</radialGradient>
<radialGradient id="paint1_radial_1956_5168" cx="0" cy="0" r="1" gradientTransform="matrix(0.00497645 27.2906 -26.2319 0.00413108 19.9908 8.96187)" gradientUnits="userSpaceOnUse">
<stop offset="0.110577" stop-color="#E3D0D5"/>
<stop offset="0.538462" stop-color="#BE6FBD"/>
<stop offset="1" stop-color="#8E4ABD" stop-opacity="0.15"/>
</radialGradient>
</defs>
</svg>
