<svg width="40" height="40" viewBox="0 0 40 40" fill="none" xmlns="http://www.w3.org/2000/svg">
<path fill-rule="evenodd" clip-rule="evenodd" d="M24.3573 12.5C23.534 12.5 22.7436 12.8283 22.156 13.4143L20.1864 15.3787L20.1847 15.3805L14.7735 20.8029C14.1035 21.4744 13.6157 22.3105 13.3575 23.2301L12.5403 26.141C12.4366 26.5102 12.5363 26.9077 12.8013 27.1814C13.0663 27.4552 13.4557 27.563 13.8208 27.4637L16.7554 26.6655C17.6644 26.4182 18.4951 25.9362 19.1667 25.2664L26.575 17.8776C27.1667 17.2875 27.5 16.4805 27.5 15.638C27.5 13.9049 26.1175 12.5 24.4121 12.5L24.3573 12.5ZM23.6261 14.9366C23.8213 14.7419 24.0839 14.6329 24.3573 14.6329L24.4121 14.6329C24.9584 14.6329 25.4012 15.0829 25.4012 15.638C25.4012 15.9079 25.2944 16.1664 25.1049 16.3554L24.1581 17.2997C23.9803 17.0095 23.7648 16.7072 23.519 16.4621C23.2828 16.2266 22.9939 16.0192 22.714 15.8463L23.6261 14.9366ZM22.0489 17.9843C22.217 18.1519 22.4221 18.4788 22.6085 18.8452L17.6966 23.7442C17.2833 24.1564 16.7721 24.453 16.2127 24.6051L15.0665 24.9169L15.3758 23.8153C15.5346 23.2494 15.8348 22.7348 16.2472 22.3216L21.1506 17.4079L21.1642 17.4148C21.5401 17.6037 21.8774 17.8132 22.0489 17.9843Z" fill="url(#paint0_radial_1956_5180)"/>
<path fill-rule="evenodd" clip-rule="evenodd" d="M9.29889 6.25C8.36227 6.24998 7.58425 6.24997 6.94942 6.30184C6.28849 6.35584 5.67348 6.47223 5.09355 6.76772C4.19978 7.22312 3.47312 7.94978 3.01772 8.84355C2.72223 9.42348 2.60584 10.0385 2.55184 10.6994C2.49997 11.3342 2.49998 12.1123 2.5 13.0489V26.944C2.49998 27.8806 2.49997 28.6586 2.55184 29.2935C2.60584 29.9544 2.72223 30.5694 3.01772 31.1493C3.47312 32.0431 4.19978 32.7698 5.09355 33.2252C5.67348 33.5207 6.28849 33.637 6.94942 33.691C7.58424 33.7429 8.36224 33.7429 9.29884 33.7429H30.6922C31.6288 33.7429 32.4068 33.7429 33.0416 33.691C33.7026 33.637 34.3176 33.5207 34.8975 33.2252C35.7913 32.7698 36.5179 32.0431 36.9733 31.1493C37.2688 30.5694 37.3852 29.9544 37.4392 29.2935C37.4911 28.6587 37.4911 27.8807 37.491 26.9442V13.0489C37.4911 12.1123 37.4911 11.3342 37.4392 10.6994C37.3852 10.0385 37.2688 9.42348 36.9733 8.84355C36.5179 7.94978 35.7913 7.22312 34.8975 6.76772C34.3176 6.47223 33.7026 6.35584 33.0416 6.30184C32.4068 6.24997 31.6288 6.24998 30.6922 6.25H9.29889ZM6.22852 8.99524C6.39728 8.90925 6.64667 8.8349 7.153 8.79354C7.67392 8.75097 8.34928 8.75 9.35 8.75H30.641C31.6418 8.75 32.3171 8.75097 32.838 8.79354C33.3444 8.8349 33.5938 8.90925 33.7625 8.99524C34.1859 9.21095 34.5301 9.55516 34.7458 9.97852C34.8318 10.1473 34.9061 10.3967 34.9475 10.903C34.9901 11.4239 34.991 12.0993 34.991 13.1V26.8929C34.991 27.8936 34.9901 28.569 34.9475 29.0899C34.9061 29.5962 34.8318 29.8456 34.7458 30.0144C34.5301 30.4377 34.1859 30.7819 33.7625 30.9976C33.5938 31.0836 33.3444 31.158 32.838 31.1994C32.3171 31.2419 31.6418 31.2429 30.641 31.2429H9.35C8.34928 31.2429 7.67392 31.2419 7.153 31.1994C6.64667 31.158 6.39728 31.0836 6.22852 30.9976C5.80516 30.7819 5.46095 30.4377 5.24524 30.0144C5.15925 29.8456 5.0849 29.5962 5.04354 29.0899C5.00097 28.569 5 27.8936 5 26.8929V13.1C5 12.0993 5.00097 11.4239 5.04354 10.903C5.0849 10.3967 5.15925 10.1473 5.24524 9.97852C5.46095 9.55516 5.80516 9.21095 6.22852 8.99524Z" fill="url(#paint1_radial_1956_5180)"/>
<defs>
<radialGradient id="paint0_radial_1956_5180" cx="0" cy="0" r="1" gradientTransform="matrix(4.0515e-08 13.8889 -13.8889 -0.000532345 17.7778 17.7778)" gradientUnits="userSpaceOnUse">
<stop offset="0.396437" stop-color="white"/>
<stop offset="0.872276" stop-color="white" stop-opacity="0"/>
</radialGradient>
<radialGradient id="paint1_radial_1956_5180" cx="0" cy="0" r="1" gradientTransform="matrix(0.00557369 23.0843 -29.3801 0.00349436 19.9899 10.6586)" gradientUnits="userSpaceOnUse">
<stop offset="0.110577" stop-color="#E3D0D5"/>
<stop offset="0.538462" stop-color="#BE6FBD"/>
<stop offset="1" stop-color="#8E4ABD" stop-opacity="0.15"/>
</radialGradient>
</defs>
</svg>
