<svg width="40" height="40" viewBox="0 0 40 40" fill="none" xmlns="http://www.w3.org/2000/svg">
<path fill-rule="evenodd" clip-rule="evenodd" d="M17.0021 16.25C14.1875 16.25 12.5 18.7315 12.5 20.7777C12.5 22.535 13.3212 24.1411 14.3615 25.4981C15.4095 26.865 16.7624 28.0864 18.0094 29.0921L18.096 29.1622C18.4631 29.4599 18.8519 29.7752 19.3449 29.913C19.76 30.029 20.24 30.029 20.6551 29.913C21.1481 29.7752 21.5369 29.4599 21.904 29.1622L21.9906 29.0921C23.2376 28.0864 24.5905 26.865 25.6385 25.4981C26.6788 24.1411 27.5 22.535 27.5 20.7777C27.5 18.7315 25.8125 16.25 22.9979 16.25C22.116 16.25 21.3548 16.6076 20.7457 17.0419C20.479 17.2322 20.23 17.4452 20 17.6659C19.77 17.4452 19.521 17.2322 19.2543 17.0419C18.6452 16.6076 17.884 16.25 17.0021 16.25ZM14.5619 20.7777C14.5619 19.6894 15.5145 18.3493 17.0021 18.3493C17.3217 18.3493 17.6743 18.4782 18.0713 18.7613C18.4699 19.0456 18.853 19.4427 19.2139 19.8758C19.4097 20.1109 19.6972 20.2464 20 20.2464C20.3028 20.2464 20.5903 20.1109 20.7861 19.8758C21.147 19.4427 21.5301 19.0456 21.9287 18.7613C22.3257 18.4782 22.6783 18.3493 22.9979 18.3493C24.4855 18.3493 25.4381 19.6894 25.4381 20.7777C25.4381 21.8669 24.9214 23.0216 24.0131 24.2063C23.1125 25.3811 21.9062 26.4821 20.7103 27.4465C20.4697 27.6405 20.3354 27.7479 20.2279 27.8211C20.1399 27.8811 20.1127 27.8877 20.1095 27.8885C20.0517 27.9047 19.9486 27.9047 19.8908 27.8886C19.8875 27.8878 19.8601 27.8811 19.7721 27.8211C19.6646 27.7479 19.5303 27.6405 19.2897 27.4465C18.0938 26.4821 16.8875 25.3811 15.9869 24.2063C15.0786 23.0216 14.5619 21.8669 14.5619 20.7777Z" fill="url(#paint0_radial_1956_5186)"/>
<path fill-rule="evenodd" clip-rule="evenodd" d="M29.5427 5.01414C29.3626 5.02373 29.1155 5.05718 28.6812 5.11788L14.2413 7.13637C12.7259 7.3482 11.6589 7.49821 10.8276 7.68011C10.3555 7.78338 9.99046 7.89092 9.69119 8.01136C9.81917 8.00574 9.94901 8.00271 10.0808 8.00174C10.9141 7.99565 11.9394 8.07438 13.2017 8.1713L28.0667 9.31258C28.6492 9.35729 29.175 9.39766 29.6489 9.44274V5.9597C29.6489 5.52122 29.6478 5.27189 29.6324 5.09215C29.6294 5.05762 29.6263 5.03127 29.6235 5.01185C29.6039 5.01178 29.5773 5.0123 29.5427 5.01414ZM6.875 16.4013C6.875 15.0673 6.87604 14.1444 6.93604 13.4312C6.99491 12.7315 7.10345 12.3547 7.24895 12.0847C7.57754 11.4749 8.09942 10.9915 8.7326 10.7106C9.01298 10.5862 9.39699 10.5068 10.0991 10.5017C10.8148 10.4964 11.735 10.5661 13.0652 10.6682L27.8251 11.8014C28.9843 11.8904 29.7814 11.9525 30.399 12.0493C31.0014 12.1437 31.3321 12.2578 31.5759 12.399C32.1187 12.7133 32.5544 13.1837 32.8262 13.749C32.9483 14.0029 33.0368 14.3414 33.0848 14.9493C33.1341 15.5724 33.135 16.3719 33.135 17.5345V29.107C33.135 30.441 33.1339 31.3639 33.0739 32.0771C33.0151 32.7768 32.9065 33.1536 32.761 33.4236C32.4324 34.0334 31.9105 34.5168 31.2774 34.7977C30.997 34.9221 30.613 35.0015 29.9109 35.0066C29.1952 35.0119 28.2749 34.9422 26.9448 34.8401L12.1848 33.7069C11.0256 33.6179 10.2285 33.5558 9.61101 33.459C9.00861 33.3646 8.67785 33.2505 8.43404 33.1093C7.89123 32.795 7.45557 32.3246 7.18373 31.7593C7.06163 31.5054 6.97318 31.1669 6.92515 30.559C6.87591 29.9359 6.875 29.1364 6.875 27.9738V16.4013ZM4.375 28.0242C4.37499 29.1242 4.37498 30.0227 4.43291 30.756C4.49294 31.5156 4.62059 32.1979 4.93072 32.8428C5.42003 33.8603 6.20422 34.707 7.18128 35.2728C7.80052 35.6313 8.47103 35.8108 9.22388 35.9288C9.9505 36.0427 10.8464 36.1115 11.9431 36.1957L26.8083 37.337C28.0706 37.4339 29.0959 37.5126 29.9291 37.5065C30.788 37.5003 31.5628 37.4061 32.2913 37.0829C33.431 36.5772 34.3704 35.7071 34.9619 34.6095C35.3399 33.9079 35.4931 33.1426 35.5651 32.2867C35.635 31.4563 35.635 30.4279 35.635 29.1619V17.484C35.635 16.384 35.635 15.4855 35.5771 14.7523C35.517 13.9927 35.3894 13.3104 35.0792 12.6655C34.5899 11.648 33.8057 10.8013 32.8287 10.2355C32.609 10.1083 32.3829 10.0037 32.1489 9.91627L32.1489 5.91553C32.1489 5.53725 32.149 5.1782 32.1232 4.87816C32.0954 4.55417 32.0298 4.17108 31.8192 3.79702C31.5297 3.28302 31.0718 2.88464 30.5226 2.66911C30.123 2.51226 29.7345 2.50039 29.4098 2.51768C29.1091 2.53369 28.7535 2.58343 28.3789 2.63583L13.8454 4.6674C12.3911 4.87068 11.2292 5.0331 10.2932 5.23788C9.3313 5.44834 8.51646 5.72129 7.77979 6.19187C6.58501 6.95509 5.63554 8.04652 5.04507 9.33546C4.681 10.1302 4.52349 10.975 4.44822 11.9567C4.37498 12.912 4.37499 14.0853 4.375 15.5537V28.0242Z" fill="url(#paint1_radial_1956_5186)"/>
<defs>
<radialGradient id="paint0_radial_1956_5186" cx="0" cy="0" r="1" gradientTransform="matrix(4.0515e-08 12.7315 -13.8889 -0.000487983 17.7778 21.088)" gradientUnits="userSpaceOnUse">
<stop offset="0.396437" stop-color="white"/>
<stop offset="0.872276" stop-color="white" stop-opacity="0"/>
</radialGradient>
<radialGradient id="paint1_radial_1956_5186" cx="0" cy="0" r="1" gradientUnits="userSpaceOnUse" gradientTransform="translate(20 8.12329) rotate(89.9903) scale(29.3836 26.2473)">
<stop offset="0.110577" stop-color="#E3D0D5"/>
<stop offset="0.538462" stop-color="#BE6FBD"/>
<stop offset="1" stop-color="#8E4ABD" stop-opacity="0.15"/>
</radialGradient>
</defs>
</svg>
