<svg width="335" height="194" viewBox="0 0 335 194" fill="none" xmlns="http://www.w3.org/2000/svg">
<path d="M-99.5641 100.413C-114.751 107.827 -128.081 118.553 -138.573 131.802L-141.581 135.601C-163.707 163.542 -170.56 200.626 -159.88 234.628C-142.075 291.314 -79.4631 499.946 -22.7779 482.141L423.692 341.903C465.817 328.672 487.015 106.681 473.783 64.5561L455.99 7.90916C446.462 -22.4233 408.429 -32.2514 385.398 -10.3327C378.479 -3.74733 369.564 0.343902 360.061 1.29429L334.931 3.80789C313.595 5.94231 294.392 17.6748 282.757 35.6855L277.796 43.3663C261.856 68.0412 230.344 77.4684 203.471 65.6023C178.972 54.7838 150.267 61.5897 133.232 82.2545L129.014 87.3722C115.231 104.092 94.3512 113.304 72.71 112.213L46.3292 110.883C34.551 110.29 22.922 107.977 11.8119 104.021L-12.0848 95.5091C-40.7171 85.3109 -72.2508 87.0785 -99.5641 100.413Z" fill="url(#paint0_radial_2602_99641)" fill-opacity="0.12"/>
<path d="M-99.3128 100.928C-72.1381 87.6614 -40.7637 85.903 -12.2767 96.0495L11.6192 104.561C22.7818 108.536 34.4665 110.859 46.3006 111.456L72.6812 112.786C94.5036 113.886 115.559 104.597 129.457 87.7373L133.675 82.619C150.547 62.1528 178.976 55.4123 203.24 66.1268C230.37 78.1068 262.184 68.5887 278.277 43.6771L283.239 35.9964C294.78 18.1324 313.826 6.49562 334.988 4.37858L360.118 1.86513C369.748 0.901991 378.783 -3.24421 385.794 -9.91737C408.517 -31.5432 446.042 -21.8462 455.443 8.08107L473.236 64.7283C474.868 69.9243 475.982 77.9427 476.585 88.0594C477.189 98.1648 477.281 110.326 476.889 123.785C476.105 150.704 473.382 182.795 468.929 213.984C464.476 245.176 458.296 275.444 450.607 298.729C446.762 310.374 442.547 320.249 437.994 327.614C433.431 334.996 428.586 339.765 423.521 341.356L-22.9502 481.594C-29.8468 483.76 -36.8586 482.498 -43.9283 478.445C-51.0103 474.385 -58.1226 467.538 -65.1599 458.596C-79.2333 440.713 -92.9073 414.585 -105.384 386.089C-130.333 329.105 -150.428 262.808 -159.333 234.456C-169.956 200.635 -163.14 163.748 -141.132 135.956L-138.124 132.158C-127.685 118.976 -114.422 108.304 -99.3128 100.928Z" stroke="url(#paint1_linear_2602_99641)" stroke-opacity="0.3" stroke-width="1.14693"/>
<g style="mix-blend-mode:plus-lighter" opacity="0.3">
<mask id="mask0_2602_99641" style="mask-type:alpha" maskUnits="userSpaceOnUse" x="-165" y="-23" width="643" height="507">
<path d="M-99.5719 100.413C-114.759 107.827 -128.089 118.553 -138.581 131.802L-141.589 135.601C-163.715 163.542 -170.568 200.626 -159.888 234.628C-142.083 291.314 -79.4709 499.946 -22.7858 482.141L423.684 341.903C465.809 328.672 487.007 106.681 473.775 64.5561L455.982 7.90916C446.455 -22.4233 408.421 -32.2514 385.39 -10.3327C378.471 -3.74733 369.556 0.343902 360.053 1.29429L334.923 3.80789C313.587 5.94231 294.385 17.6748 282.749 35.6855L277.788 43.3663C261.848 68.0412 230.336 77.4684 203.464 65.6023C178.965 54.7838 150.26 61.5897 133.224 82.2545L129.006 87.3722C115.223 104.092 94.3434 113.304 72.7022 112.213L46.3214 110.883C34.5432 110.29 22.9142 107.977 11.8041 104.021L-12.0926 95.5091C-40.725 85.3109 -72.2586 87.0785 -99.5719 100.413Z" fill="url(#paint2_linear_2602_99641)" fill-opacity="0.5"/>
</mask>
<g mask="url(#mask0_2602_99641)">
<path d="M-243.805 280.913L-243.148 281.852L291.068 -92.0121L290.41 -92.9512L-243.805 280.913ZM-135.383 300.057L-134.726 300.997L399.49 -72.8675L398.833 -73.8066L-135.383 300.057ZM-379.336 256.979L-378.679 257.918L155.537 -115.946L154.88 -116.885L-379.336 256.979ZM-514.875 233.045L-514.218 233.985L19.998 -139.879L19.3407 -140.819L-514.875 233.045ZM237.344 365.874L238.001 366.813L772.217 -7.05113L771.56 -7.99028L237.344 365.874ZM217.015 362.284L217.672 363.223L751.888 -10.6409L751.231 -11.58L217.015 362.284ZM101.804 341.94L102.461 342.879L636.677 -30.9852L636.02 -31.9243L101.804 341.94ZM-33.7347 318.006L-33.0775 318.945L501.138 -54.9191L500.481 -55.8582L-33.7347 318.006ZM-162.477 295.272L-161.82 296.211L372.396 -77.6529L371.739 -78.592L-162.477 295.272ZM318.664 380.233L319.321 381.172L853.537 7.30767L852.88 6.36852L318.664 380.233ZM298.336 376.643L298.993 377.582L833.209 3.71807L832.552 2.77892L298.336 376.643ZM-6.62563 322.792L-5.96838 323.731L528.247 -50.1331L527.59 -51.0722L-6.62563 322.792ZM-54.0549 314.417L-53.3977 315.356L480.818 -58.5083L480.161 -59.4474L-54.0549 314.417ZM-74.383 310.827L-73.7258 311.766L460.49 -62.0979L459.833 -63.037L-74.383 310.827ZM-87.9456 308.432L-87.2884 309.371L446.927 -64.4928L446.27 -65.432L-87.9456 308.432ZM-108.274 304.842L-107.616 305.782L426.599 -68.0824L425.942 -69.0216L-108.274 304.842ZM-155.703 296.467L-155.046 297.406L379.17 -76.4577L378.513 -77.3968L-155.703 296.467ZM-230.251 283.303L-229.594 284.242L304.622 -89.6216L303.965 -90.5607L-230.251 283.303ZM-352.227 261.764L-351.57 262.704L182.646 -111.161L181.989 -112.1L-352.227 261.764ZM-365.79 259.369L-365.132 260.309L169.083 -113.555L168.426 -114.495L-365.79 259.369ZM305.109 377.838L305.767 378.777L839.982 4.91313L839.325 3.97398L305.109 377.838ZM244.125 367.069L244.782 368.008L778.998 -5.85567L778.341 -6.79482L244.125 367.069ZM162.804 352.709L163.461 353.648L697.677 -20.2156L697.02 -21.1547L162.804 352.709ZM149.242 350.315L149.9 351.254L684.115 -22.6104L683.458 -23.5495L149.242 350.315ZM108.585 343.135L109.243 344.074L643.458 -29.7897L642.801 -30.7289L108.585 343.135ZM81.484 338.35L82.1413 339.289L616.357 -34.5754L615.7 -35.5145L81.484 338.35ZM27.2653 328.775L27.9225 329.715L562.138 -44.1495L561.481 -45.0886L27.2653 328.775ZM0.171724 323.991L0.828973 324.93L535.045 -48.9338L534.388 -49.8729L0.171724 323.991ZM-47.2816 315.612L-46.6244 316.551L487.591 -57.3132L486.934 -58.2524L-47.2816 315.612ZM-121.828 302.448L-121.171 303.387L413.045 -70.477L412.387 -71.4161L-121.828 302.448ZM-169.258 294.073L-168.601 295.012L365.615 -78.8522L364.958 -79.7913L-169.258 294.073ZM-270.907 276.123L-270.25 277.062L263.966 -96.8017L263.309 -97.7409L-270.907 276.123ZM-467.43 241.42L-466.773 242.36L67.4432 -131.504L66.7859 -132.444L-467.43 241.42ZM325.445 381.428L326.102 382.367L860.318 8.50313L859.661 7.56398L325.445 381.428ZM271.226 371.854L271.884 372.793L806.099 -1.07101L805.442 -2.01015L271.226 371.854ZM223.797 363.479L224.454 364.418L758.67 -9.44623L758.013 -10.3854L223.797 363.479ZM176.351 355.101L177.009 356.04L711.225 -17.8243L710.567 -18.7635L176.351 355.101ZM135.688 347.92L136.345 348.859L670.561 -25.0049L669.903 -25.944L135.688 347.92ZM74.7024 337.151L75.3597 338.09L609.575 -35.7739L608.918 -36.713L74.7024 337.151ZM-26.9457 319.202L-26.2884 320.141L507.927 -53.7232L507.27 -54.6624L-26.9457 319.202ZM-223.469 284.499L-222.811 285.438L311.404 -88.4259L310.747 -89.3651L-223.469 284.499ZM-257.359 278.514L-256.702 279.454L277.514 -94.4105L276.856 -95.3496L-257.359 278.514ZM-304.79 270.139L-304.132 271.078L230.083 -102.786L229.426 -103.725L-304.79 270.139ZM-359.008 260.565L-358.351 261.504L175.865 -112.36L175.207 -113.299L-359.008 260.565ZM-440.328 246.205L-439.671 247.144L94.5446 -126.72L93.8873 -127.659L-440.328 246.205ZM-555.532 225.862L-554.874 226.801L-20.6584 -147.063L-21.3157 -148.002L-555.532 225.862ZM210.242 361.084L210.9 362.023L745.115 -11.8408L744.458 -12.7799L210.242 361.084ZM189.913 357.494L190.571 358.434L724.786 -15.4305L724.129 -16.3697L189.913 357.494ZM88.2652 339.545L88.9225 340.484L623.138 -33.3799L622.481 -34.319L88.2652 339.545ZM34.0464 329.971L34.7037 330.91L568.92 -42.954L568.262 -43.8932L34.0464 329.971ZM13.7183 326.381L14.3756 327.32L548.591 -46.5436L547.934 -47.4828L13.7183 326.381ZM-94.7192 307.233L-94.062 308.172L440.154 -65.6919L439.497 -66.6311L-94.7192 307.233ZM-196.367 289.284L-195.71 290.223L338.506 -83.6413L337.849 -84.5804L-196.367 289.284ZM-318.344 267.745L-317.687 268.684L216.529 -105.18L215.871 -106.12L-318.344 267.745ZM-331.906 265.35L-331.249 266.289L202.967 -107.575L202.31 -108.514L-331.906 265.35ZM-392.891 254.581L-392.234 255.52L141.982 -118.344L141.324 -119.283L-392.891 254.581ZM-426.782 248.596L-426.125 249.535L108.091 -124.329L107.434 -125.268L-426.782 248.596ZM-447.11 245.007L-446.453 245.946L87.763 -127.918L87.1057 -128.857L-447.11 245.007ZM-487.774 237.826L-487.117 238.765L47.0991 -135.099L46.4419 -136.038L-487.774 237.826ZM-562.297 224.667L-561.64 225.606L-27.4237 -148.258L-28.081 -149.197L-562.297 224.667ZM-575.859 222.272L-575.202 223.211L-40.9864 -150.653L-41.6436 -151.592L-575.859 222.272ZM257.68 369.46L258.337 370.399L792.553 -3.46515L791.895 -4.4043L257.68 369.46ZM196.688 358.69L197.345 359.629L731.561 -14.2353L730.903 -15.1745L196.688 358.69ZM156.03 351.51L156.688 352.449L690.904 -21.4147L690.246 -22.3538L156.03 351.51ZM54.3824 333.561L55.0396 334.5L589.255 -39.364L588.598 -40.3032L54.3824 333.561ZM47.5938 332.362L48.2511 333.301L582.467 -40.5628L581.81 -41.5019L47.5938 332.362ZM40.8197 331.166L41.477 332.105L575.693 -41.759L575.036 -42.6981L40.8197 331.166ZM20.4917 327.576L21.1489 328.515L555.365 -45.3486L554.707 -46.2877L20.4917 327.576ZM-142.141 298.858L-141.483 299.797L392.732 -74.0667L392.075 -75.0059L-142.141 298.858ZM-209.922 286.889L-209.265 287.828L324.951 -86.0358L324.294 -86.975L-209.922 286.889ZM-250.578 279.71L-249.921 280.649L284.295 -93.215L283.638 -94.1542L-250.578 279.71ZM-291.242 272.529L-290.585 273.468L243.631 -100.396L242.974 -101.335L-291.242 272.529ZM-345.461 262.955L-344.804 263.894L189.412 -109.97L188.755 -110.909L-345.461 262.955ZM-406.446 252.186L-405.789 253.125L128.427 -120.739L127.77 -121.678L-406.446 252.186ZM-501.329 235.432L-500.671 236.371L33.5443 -137.493L32.8871 -138.433L-501.329 235.432ZM-582.641 221.073L-581.984 222.012L-47.768 -151.852L-48.4252 -152.791L-582.641 221.073ZM284.781 374.244L285.438 375.184L819.654 1.31951L818.997 0.380367L284.781 374.244ZM278.015 373.05L278.673 373.989L812.889 0.124848L812.231 -0.814298L278.015 373.05ZM250.89 368.26L251.547 369.199L785.763 -4.66502L785.106 -5.60417L250.89 368.26ZM183.133 356.295L183.79 357.234L718.006 -16.6298L717.349 -17.569L183.133 356.295ZM169.593 353.904L170.251 354.843L704.466 -19.0207L703.809 -19.9599L169.593 353.904ZM142.477 349.116L143.134 350.055L677.35 -23.809L676.692 -24.7482L142.477 349.116ZM128.914 346.721L129.571 347.66L663.787 -26.204L663.13 -27.1431L128.914 346.721ZM122.148 345.526L122.805 346.465L657.021 -27.3988L656.363 -28.338L122.148 345.526ZM-13.3912 321.592L-12.7339 322.531L521.482 -51.3327L520.825 -52.2719L-13.3912 321.592ZM-60.8205 313.217L-60.1632 314.156L474.053 -59.7079L473.395 -60.6471L-60.8205 313.217ZM-115.039 303.643L-114.382 304.582L419.834 -69.2821L419.177 -70.2212L-115.039 303.643ZM-311.563 268.94L-310.906 269.879L223.31 -103.985L222.653 -104.924L-311.563 268.94ZM-420 249.792L-419.343 250.731L114.873 -123.133L114.216 -124.072L-420 249.792ZM-453.868 243.811L-453.21 244.751L81.0055 -129.113L80.3483 -130.053L-453.868 243.811ZM-494.531 236.631L-493.874 237.57L40.3417 -136.294L39.6844 -137.233L-494.531 236.631ZM-521.649 231.842L-520.992 232.781L13.2241 -141.083L12.5669 -142.022L-521.649 231.842ZM-548.75 227.057L-548.093 227.996L-13.8771 -145.868L-14.5344 -146.807L-548.75 227.057ZM264.461 370.655L265.118 371.594L799.334 -2.26969L798.677 -3.20884L264.461 370.655ZM230.57 364.671L231.227 365.61L765.443 -8.25423L764.786 -9.19337L230.57 364.671ZM115.359 344.326L116.017 345.266L650.232 -28.5985L649.575 -29.5377L115.359 344.326ZM6.94475 325.182L7.602 326.121L541.818 -47.7427L541.161 -48.6819L6.94475 325.182ZM-67.6021 312.018L-66.9449 312.958L467.271 -60.9065L466.614 -61.8456L-67.6021 312.018ZM-148.922 297.659L-148.265 298.598L385.951 -75.2662L385.294 -76.2054L-148.922 297.659ZM-182.813 291.674L-182.156 292.613L352.06 -81.2507L351.403 -82.1899L-182.813 291.674ZM-277.688 274.921L-277.031 275.86L257.185 -98.0041L256.528 -98.9432L-277.688 274.921ZM-284.461 273.725L-283.804 274.664L250.412 -99.2001L249.755 -100.139L-284.461 273.725ZM-386.11 255.775L-385.453 256.714L148.763 -117.15L148.106 -118.089L-386.11 255.775ZM-433.555 247.397L-432.897 248.336L101.318 -125.528L100.661 -126.467L-433.555 247.397ZM-480.985 239.022L-480.328 239.961L53.8881 -133.903L53.2309 -134.842L-480.985 239.022ZM-528.414 230.647L-527.757 231.586L6.45884 -142.278L5.80159 -143.217L-528.414 230.647ZM311.89 379.029L312.547 379.969L846.763 6.10457L846.106 5.16543L311.89 379.029ZM291.562 375.44L292.219 376.379L826.435 2.51497L825.778 1.57583L291.562 375.44ZM67.9369 335.951L68.5941 336.891L602.81 -36.9735L602.153 -37.9127L67.9369 335.951ZM61.1483 334.753L61.8056 335.692L596.021 -38.1723L595.364 -39.1114L61.1483 334.753ZM-40.5007 316.803L-39.8435 317.742L494.372 -56.1218L493.715 -57.0609L-40.5007 316.803ZM-176.04 292.869L-175.382 293.808L358.834 -80.0557L358.176 -80.9948L-176.04 292.869ZM-237.024 282.1L-236.367 283.04L297.849 -90.8245L297.192 -91.7636L-237.024 282.1ZM-338.672 264.151L-338.015 265.09L196.201 -108.774L195.544 -109.713L-338.672 264.151ZM-460.649 242.612L-459.992 243.551L74.2241 -130.313L73.5668 -131.252L-460.649 242.612ZM-541.969 228.252L-541.312 229.191L-7.09593 -144.673L-7.75318 -145.612L-541.969 228.252ZM-81.1567 309.623L-80.4995 310.562L453.716 -63.3019L453.059 -64.2411L-81.1567 309.623ZM-101.485 306.033L-100.828 306.973L433.388 -66.8916L432.731 -67.8307L-101.485 306.033ZM-189.594 290.475L-188.937 291.414L345.279 -82.4502L344.622 -83.3894L-189.594 290.475ZM-203.133 288.084L-202.476 289.023L331.74 -84.8409L331.083 -85.7801L-203.133 288.084ZM-298.008 271.331L-297.351 272.27L236.865 -101.594L236.208 -102.533L-298.008 271.331ZM-413.219 250.986L-412.561 251.926L121.655 -121.939L120.997 -122.878L-413.219 250.986ZM-474.204 240.217L-473.547 241.157L60.6693 -132.708L60.0121 -133.647L-474.204 240.217ZM-508.094 234.233L-507.437 235.172L26.7786 -138.692L26.1214 -139.631L-508.094 234.233ZM-535.196 229.447L-534.538 230.386L-0.322615 -143.478L-0.979865 -144.417L-535.196 229.447ZM95.0471 340.737L95.7043 341.676L629.92 -32.1883L629.263 -33.1274L95.0471 340.737ZM-264.133 277.311L-263.476 278.25L270.74 -95.6136L270.083 -96.5527L-264.133 277.311ZM203.468 359.881L204.126 360.82L738.342 -13.0439L737.684 -13.983L203.468 359.881ZM-128.594 301.244L-127.937 302.183L406.279 -71.6806L405.621 -72.6198L-128.594 301.244ZM-216.68 285.69L-216.023 286.629L318.193 -87.2351L317.536 -88.1742L-216.68 285.69ZM-372.548 258.166L-371.89 259.105L162.325 -114.759L161.668 -115.698L-372.548 258.166ZM-399.664 253.378L-399.007 254.317L135.209 -119.547L134.552 -120.486L-399.664 253.378ZM-569.086 223.46L-568.429 224.399L-34.2128 -149.465L-34.8701 -150.404L-569.086 223.46ZM-20.1641 320.389L-19.5069 321.328L514.709 -52.5356L514.052 -53.4748L-20.1641 320.389ZM-325.109 266.541L-324.452 267.48L209.764 -106.384L209.106 -107.323L-325.109 266.541Z" fill="url(#paint3_linear_2602_99641)" fill-opacity="0.5"/>
</g>
</g>
<path d="M-99.0688 101.428C-72.0285 88.2266 -40.8096 86.4765 -12.4634 96.5728L11.4334 105.084C22.647 109.077 34.3843 111.412 46.2724 112.011L72.6527 113.341C94.6507 114.449 115.875 105.085 129.885 88.09L134.103 82.9727C150.817 62.6984 178.98 56.0213 203.016 66.6353C230.396 78.7254 262.503 69.1199 278.744 43.9789L283.705 36.2983C295.154 18.5763 314.049 7.03178 335.043 4.93147L360.173 2.41803C369.926 1.44266 379.076 -2.7562 386.176 -9.51444C408.601 -30.857 445.635 -21.2874 454.913 8.24758L472.706 64.8948C474.317 70.0234 475.427 77.9861 476.03 88.0927C476.632 98.177 476.725 110.32 476.334 123.769C475.55 150.666 472.828 182.736 468.378 213.905C463.927 245.082 457.754 275.314 450.079 298.555C446.241 310.179 442.042 320.008 437.522 327.321C432.98 334.669 428.225 339.296 423.354 340.826L-23.1167 481.064C-29.8303 483.173 -36.6808 481.96 -43.6518 477.963C-50.6468 473.953 -57.7075 467.167 -64.7231 458.253C-78.7519 440.427 -92.403 414.351 -104.875 385.866C-129.809 328.916 -149.895 262.651 -158.803 234.29C-169.371 200.644 -162.59 163.949 -140.696 136.302L-137.688 132.503C-127.301 119.387 -114.104 108.768 -99.0688 101.428Z" stroke="url(#paint4_linear_2602_99641)" stroke-opacity="0.3" stroke-width="2.25824"/>
<path d="M40.998 121.993C46.286 122.927 51.3298 119.397 52.2636 114.109C53.1974 108.821 49.6676 103.777 44.3795 102.843C39.0915 101.909 34.0477 105.439 33.1139 110.727C32.1802 116.015 35.71 121.059 40.998 121.993Z" fill="#281332"/>
<path d="M42.3369 114.715C43.5651 114.932 44.7365 114.112 44.9534 112.884C45.1703 111.656 44.3505 110.485 43.1223 110.268C41.8941 110.051 40.7226 110.871 40.5057 112.099C40.2889 113.327 41.1087 114.498 42.3369 114.715Z" fill="white"/>
<path d="M159.904 71.9029C165.192 72.8367 170.236 69.3069 171.17 64.0188C172.104 58.7308 168.574 53.687 163.286 52.7533C157.998 51.8195 152.954 55.3493 152.02 60.6373C151.086 65.9254 154.616 70.9691 159.904 71.9029Z" fill="#281332"/>
<path d="M161.212 64.5474C162.44 64.7643 163.612 63.9444 163.828 62.7162C164.045 61.4881 163.225 60.3166 161.997 60.0997C160.769 59.8828 159.598 60.7027 159.381 61.9309C159.164 63.1591 159.984 64.3305 161.212 64.5474Z" fill="white"/>
<path d="M290.592 33.0631C295.88 33.9969 300.924 30.467 301.857 25.179C302.791 19.891 299.261 14.8472 293.973 13.9134C288.685 12.9796 283.641 16.5095 282.708 21.7975C281.774 27.0855 285.304 32.1293 290.592 33.0631Z" fill="#281332"/>
<path d="M291.884 25.7075C293.112 25.9244 294.283 25.1046 294.5 23.8764C294.717 22.6482 293.897 21.4768 292.669 21.2599C291.441 21.043 290.269 21.8628 290.053 23.091C289.836 24.3192 290.656 25.4907 291.884 25.7075Z" fill="white"/>
<defs>
<radialGradient id="paint0_radial_2602_99641" cx="0" cy="0" r="1" gradientUnits="userSpaceOnUse" gradientTransform="translate(198.846 32.4769) rotate(106.585) scale(205.971 264.82)">
<stop offset="0.190476" stop-color="#C53DFF"/>
<stop offset="1" stop-color="#0A0A0A" stop-opacity="0"/>
</radialGradient>
<linearGradient id="paint1_linear_2602_99641" x1="391.667" y1="-46.5843" x2="8.10715" y2="401.614" gradientUnits="userSpaceOnUse">
<stop stop-color="#C53DFF"/>
<stop offset="0.665361" stop-color="#C53DFF" stop-opacity="0"/>
</linearGradient>
<linearGradient id="paint2_linear_2602_99641" x1="119.459" y1="30.2871" x2="235.869" y2="400.897" gradientUnits="userSpaceOnUse">
<stop stop-color="white"/>
<stop offset="0.705884" stop-color="white" stop-opacity="0"/>
</linearGradient>
<linearGradient id="paint3_linear_2602_99641" x1="650.127" y1="-134.852" x2="-74.4932" y2="281.676" gradientUnits="userSpaceOnUse">
<stop stop-color="white"/>
<stop offset="0.7583" stop-color="white" stop-opacity="0"/>
</linearGradient>
<linearGradient id="paint4_linear_2602_99641" x1="391.667" y1="-46.5843" x2="8.10715" y2="401.614" gradientUnits="userSpaceOnUse">
<stop stop-color="#C53DFF"/>
<stop offset="0.665361" stop-color="#C53DFF" stop-opacity="0"/>
</linearGradient>
</defs>
</svg>
